REM DIRINDEX 1\2,1\3,1\4,1\5
REM DIRNAME "folder01","folder02","folder03","folder04","folder05"
TITLE ""
FILE "1Q_t_1910-1919.mp3" MP3
  TRACK 01 AUDIO
    TITLE "0:"
    INDEX 01 00:00:00
  TRACK 02 AUDIO
    TITLE "3:cjc172_6734"
    INDEX 01 00:00:10
  TRACK 03 AUDIO
    TITLE "0:"
    INDEX 01 00:01:14
  TRACK 04 AUDIO
    TITLE "4:cjc172_6735"
    INDEX 01 00:01:25
  TRACK 05 AUDIO
    TITLE "0:"
    INDEX 01 00:04:67
  TRACK 06 AUDIO
    TITLE "5:cjc172_6736"
    INDEX 01 00:05:02
  TRACK 07 AUDIO
    TITLE "0:"
    INDEX 01 00:10:22
  TRACK 08 AUDIO
    TITLE "3:cjc172_6737"
    INDEX 01 00:10:69
  TRACK 09 AUDIO
    TITLE "0:"
    INDEX 01 00:12:19
  TRACK 10 AUDIO
    TITLE "4:cjc172_6738"
    INDEX 01 00:12:29
  TRACK 11 AUDIO
    TITLE "0:"
    INDEX 01 00:15:49
  TRACK 12 AUDIO
    TITLE "5:cjc172_6739"
    INDEX 01 00:15:59
  TRACK 13 AUDIO
    TITLE "0:"
    INDEX 01 00:19:74
  TRACK 14 AUDIO
    TITLE "3:cjc172_6740"
    INDEX 01 00:20:44
  TRACK 15 AUDIO
    TITLE "0:"
    INDEX 01 00:21:40
  TRACK 16 AUDIO
    TITLE "4:cjc172_6741"
    INDEX 01 00:21:52
  TRACK 17 AUDIO
    TITLE "0:"
    INDEX 01 00:23:07
  TRACK 18 AUDIO
    TITLE "5:cjc172_6742"
    INDEX 01 00:23:17
  TRACK 19 AUDIO
    TITLE "0:"
    INDEX 01 00:27:56
  TRACK 20 AUDIO
    TITLE "3:cjc172_6743"
    INDEX 01 00:28:28
  TRACK 21 AUDIO
    TITLE "0:"
    INDEX 01 00:29:41
  TRACK 22 AUDIO
    TITLE "4:cjc172_6744"
    INDEX 01 00:29:51
  TRACK 23 AUDIO
    TITLE "0:"
    INDEX 01 00:31:27
  TRACK 24 AUDIO
    TITLE "5:cjc172_6745"
    INDEX 01 00:31:36
  TRACK 25 AUDIO
    TITLE "0:"
    INDEX 01 00:35:16
  TRACK 26 AUDIO
    TITLE "3:cjc172_6746"
    INDEX 01 00:35:65
  TRACK 27 AUDIO
    TITLE "0:"
    INDEX 01 00:36:61
  TRACK 28 AUDIO
    TITLE "4:cjc172_6747"
    INDEX 01 00:36:71
  TRACK 29 AUDIO
    TITLE "0:"
    INDEX 01 00:38:42
  TRACK 30 AUDIO
    TITLE "5:cjc172_6748"
    INDEX 01 00:38:50
  TRACK 31 AUDIO
    TITLE "0:"
    INDEX 01 00:43:22
  TRACK 32 AUDIO
    TITLE "3:cjc172_6749"
    INDEX 01 00:43:71
  TRACK 33 AUDIO
    TITLE "0:"
    INDEX 01 00:44:62
  TRACK 34 AUDIO
    TITLE "4:cjc172_6750"
    INDEX 01 00:44:72
  TRACK 35 AUDIO
    TITLE "0:"
    INDEX 01 00:47:41
  TRACK 36 AUDIO
    TITLE "5:cjc172_6751"
    INDEX 01 00:47:49
  TRACK 37 AUDIO
    TITLE "0:"
    INDEX 01 00:51:25
  TRACK 38 AUDIO
    TITLE "3:cjc172_6752"
    INDEX 01 00:51:72
  TRACK 39 AUDIO
    TITLE "0:"
    INDEX 01 00:53:14
  TRACK 40 AUDIO
    TITLE "4:cjc172_6753"
    INDEX 01 00:53:22
  TRACK 41 AUDIO
    TITLE "0:"
    INDEX 01 00:56:56
  TRACK 42 AUDIO
    TITLE "5:cjc172_6754"
    INDEX 01 00:56:66
  TRACK 43 AUDIO
    TITLE "0:"
    INDEX 01 01:01:14
  TRACK 44 AUDIO
    TITLE "3:cjc172_6755"
    INDEX 01 01:01:61
  TRACK 45 AUDIO
    TITLE "0:"
    INDEX 01 01:03:01
  TRACK 46 AUDIO
    TITLE "4:cjc172_6756"
    INDEX 01 01:03:13
  TRACK 47 AUDIO
    TITLE "0:"
    INDEX 01 01:04:30
  TRACK 48 AUDIO
    TITLE "5:cjc172_6757"
    INDEX 01 01:04:40
  TRACK 49 AUDIO
    TITLE "0:"
    INDEX 01 01:09:17
  TRACK 50 AUDIO
    TITLE "3:cjc172_6758"
    INDEX 01 01:09:62
  TRACK 51 AUDIO
    TITLE "0:"
    INDEX 01 01:10:72
  TRACK 52 AUDIO
    TITLE "4:cjc172_6759"
    INDEX 01 01:11:06
  TRACK 53 AUDIO
    TITLE "0:"
    INDEX 01 01:15:75
  TRACK 54 AUDIO
    TITLE "5:cjc172_6760"
    INDEX 01 01:16:08
  TRACK 55 AUDIO
    TITLE "0:"
    INDEX 01 01:20:17
  TRACK 56 AUDIO
    TITLE "3:cjc172_6761"
    INDEX 01 01:20:66
  TRACK 57 AUDIO
    TITLE "0:"
    INDEX 01 01:22:02
  TRACK 58 AUDIO
    TITLE "4:cjc172_6762"
    INDEX 01 01:22:12
  TRACK 59 AUDIO
    TITLE "0:"
    INDEX 01 01:24:21
  TRACK 60 AUDIO
    TITLE "5:cjc172_6763"
    INDEX 01 01:24:31
  TRACK 61 AUDIO
    TITLE "0:"
    INDEX 01 01:28:44
